<?xml version="1.0" standalone="no"?>
<!DOCTYPE svg PUBLIC "-//W3C//DTD SVG 20010904//EN"
 "http://www.w3.org/TR/2001/REC-SVG-20010904/DTD/svg10.dtd">
<svg version="1.0" xmlns="http://www.w3.org/2000/svg"
 width="1024.000000pt" height="1024.000000pt" viewBox="0 0 1024.000000 1024.000000"
 preserveAspectRatio="xMidYMid meet">

<g transform="translate(0.000000,1024.000000) scale(0.100000,-0.100000)"
fill="#000000" stroke="none">
<path d="M6048 8192 c-27 -12 -478 -456 -478 -472 0 -8 138 -154 308 -323
l307 -307 243 243 c221 222 242 246 242 277 0 31 -22 56 -262 298 -145 145
-275 270 -290 278 -29 15 -44 16 -70 6z m-35 -305 c-69 -67 -128 -123 -132
-125 -4 -1 -18 9 -32 24 l-24 26 130 124 130 123 26 -25 27 -26 -125 -121z
m135 -134 c-68 -68 -128 -123 -134 -123 -6 0 -21 12 -35 26 l-24 26 130 123
130 123 28 -26 27 -26 -122 -123z m120 -130 l-127 -126 -25 26 -24 26 126 125
127 125 26 -25 25 -24 -128 -127z m239 21 l25 -25 -123 -125 c-68 -68 -128
-124 -134 -124 -7 0 -22 12 -36 26 l-24 26 130 124 c71 68 131 124 133 124 1
0 14 -12 29 -26z"/>
<path d="M5227 7546 c-242 -231 -406 -402 -423 -441 -30 -73 -15 -167 38 -232
86 -104 504 -516 543 -534 48 -22 114 -24 158 -5 18 8 166 147 330 308 231
227 298 298 297 317 0 19 -81 107 -332 360 -359 362 -391 391 -420 391 -11 0
-91 -69 -191 -164z"/>
<path d="M4724 6725 c-24 -25 -44 -47 -44 -50 0 -2 34 -42 75 -87 41 -46 75
-88 75 -94 0 -6 -12 -21 -26 -35 l-26 -24 -63 70 -64 70 -55 -55 c-31 -30 -56
-57 -56 -60 0 -4 26 -40 57 -80 l57 -74 -407 -400 c-237 -234 -407 -409 -407
-419 0 -25 98 -127 123 -127 13 0 161 141 423 400 221 220 406 400 411 400 5
0 35 -22 68 -50 33 -27 66 -50 73 -50 17 0 102 79 102 95 0 7 -26 36 -57 64
l-57 52 32 32 32 32 73 -73 c48 -48 80 -72 96 -72 31 0 91 61 91 93 0 18 -55
80 -228 256 -125 127 -233 231 -241 231 -8 0 -33 -20 -57 -45z"/>
<path d="M6004 6209 c-194 -194 -276 -269 -285 -263 -8 4 -36 25 -62 46 -27
21 -53 38 -58 38 -6 0 -31 -20 -57 -44 l-46 -44 53 -61 53 -61 -29 -24 -28
-24 -67 64 c-41 39 -75 64 -88 64 -13 0 -39 -17 -61 -38 -29 -30 -37 -44 -32
-61 8 -33 437 -461 461 -461 20 0 92 71 92 91 0 6 -26 38 -58 72 -91 98 -89
93 -58 126 l27 28 67 -63 67 -63 43 41 c23 23 42 51 42 61 0 10 -21 44 -46 75
-26 31 -48 62 -51 67 -2 6 118 134 267 285 162 165 270 283 270 294 0 25 -101
126 -126 126 -11 0 -129 -111 -290 -271z"/>
<path d="M5012 5760 c-31 -14 -123 -99 -304 -277 -284 -282 -314 -316 -322
-359 -5 -26 17 -52 312 -348 174 -176 337 -335 362 -353 82 -60 69 -69 395
259 276 278 291 296 302 343 7 32 8 66 3 95 -5 25 -9 49 -10 55 0 5 -123 132
-272 283 -330 332 -359 350 -466 302z"/>
<path d="M4116 4755 c-205 -212 -228 -239 -228 -269 0 -18 5 -42 10 -52 12
-21 458 -465 510 -507 23 -18 45 -27 70 -27 35 0 49 12 265 231 125 127 227
236 227 243 0 14 -601 616 -615 616 -6 0 -113 -106 -239 -235z m184 -60 c13
-14 22 -26 19 -28 -2 -1 -59 -56 -126 -121 l-123 -120 -25 24 -26 24 123 123
c68 68 125 123 129 123 3 0 16 -11 29 -25z m130 -130 l24 -26 -123 -123 -124
-124 -25 30 -25 30 119 119 c65 65 121 119 125 119 3 0 16 -11 29 -25z m130
-130 l24 -26 -124 -124 -124 -125 -28 27 -28 27 122 123 c68 68 125 123 129
123 3 0 16 -11 29 -25z m25 -275 l-125 -125 -27 28 -28 27 125 125 124 125 28
-27 29 -27 -126 -126z"/>
<path d="M7285 3396 c-208 -40 -363 -161 -429 -333 -35 -92 -46 -158 -46 -272
1 -293 147 -502 415 -592 98 -33 278 -34 380 -2 274 86 428 325 412 638 -17
334 -237 553 -572 570 -54 3 -118 -1 -160 -9z m261 -238 c292 -108 301 -593
14 -730 -86 -40 -224 -38 -307 5 -83 44 -136 111 -173 219 -29 88 -25 222 10
311 72 181 269 265 456 195z"/>
<path d="M2230 2785 l0 -595 125 0 125 0 0 169 0 168 163 6 c176 6 254 22 326
64 127 74 183 170 189 322 9 209 -57 346 -198 412 -91 43 -142 49 -445 49
l-285 0 0 -595z m545 374 c55 -15 120 -82 135 -138 7 -26 9 -64 5 -90 -20
-136 -92 -180 -307 -189 l-128 -5 0 217 0 216 128 0 c70 0 145 -5 167 -11z"/>
<path d="M3395 2785 l0 -595 395 0 395 0 0 110 0 110 -272 0 -273 0 0 485 0
485 -122 0 -123 0 0 -595z"/>
<path d="M4410 2785 l0 -595 425 0 425 0 0 110 0 110 -300 0 -300 0 0 140 0
140 253 0 252 0 -3 105 -3 105 -250 0 -249 0 0 130 0 130 290 0 290 0 0 110 0
110 -415 0 -415 0 0 -595z"/>
<path d="M5500 2785 l0 -595 125 0 125 0 0 395 c0 217 3 395 8 395 4 0 21 -22
37 -48 28 -42 260 -372 450 -637 l72 -100 124 -3 124 -3 0 596 0 595 -122 0
-123 0 0 -387 c-1 -308 -3 -385 -13 -371 -7 9 -131 183 -277 387 l-265 370
-132 0 -133 1 0 -595z"/>
</g>
</svg>
